<?xml version="1.0" encoding="UTF-8" standalone="no"?>
<!DOCTYPE svg PUBLIC "-//W3C//DTD SVG 1.1//EN"
 "http://www.w3.org/Graphics/SVG/1.1/DTD/svg11.dtd">
<!-- Generated by graphviz version 14.1.5 (0)
 -->
<!-- Title: schemas.NotificationCreate Pages: 1 -->
<svg width="146pt" height="140pt"
 viewBox="0.00 0.00 146.00 140.00" xmlns="http://www.w3.org/2000/svg" xmlns:xlink="http://www.w3.org/1999/xlink">
<g id="graph0" class="graph" transform="scale(1 1) rotate(0) translate(4 136)">
<title>schemas.NotificationCreate</title>
<!-- Node1 -->
<g id="Node000001" class="node">
<title>Node1</title>
<g id="a_Node000001"><a xlink:title=" ">
<polygon fill="#999999" stroke="#666666" points="137.5,-20 0,-20 0,0 137.5,0 137.5,-20"/>
<text xml:space="preserve" text-anchor="middle" x="68.75" y="-6.5" font-family="Helvetica,sans-Serif" font-size="10.00">schemas.NotificationCreate</text>
</a>
</g>
</g>
<!-- Node2 -->
<g id="Node000002" class="node">
<title>Node2</title>
<g id="a_Node000002"><a xlink:href="classschemas_1_1NotificationBase.html" target="_top" xlink:title=" ">
<polygon fill="white" stroke="#666666" points="134.12,-76 3.38,-76 3.38,-56 134.12,-56 134.12,-76"/>
<text xml:space="preserve" text-anchor="middle" x="68.75" y="-62.5" font-family="Helvetica,sans-Serif" font-size="10.00">schemas.NotificationBase</text>
</a>
</g>
</g>
<!-- Node2&#45;&gt;Node1 -->
<g id="edge1_Node000001_Node000002" class="edge">
<title>Node2&#45;&gt;Node1</title>
<g id="a_edge1_Node000001_Node000002"><a xlink:title=" ">
<path fill="none" stroke="#63b8ff" d="M68.75,-44.13C68.75,-35.9 68.75,-26.85 68.75,-20.3"/>
<polygon fill="#63b8ff" stroke="#63b8ff" points="65.25,-44.08 68.75,-54.08 72.25,-44.08 65.25,-44.08"/>
</a>
</g>
</g>
<!-- Node3 -->
<g id="Node000003" class="node">
<title>Node3</title>
<g id="a_Node000003"><a xlink:title=" ">
<polygon fill="white" stroke="#666666" points="101.12,-132 36.38,-132 36.38,-112 101.12,-112 101.12,-132"/>
<text xml:space="preserve" text-anchor="middle" x="68.75" y="-118.5" font-family="Helvetica,sans-Serif" font-size="10.00">BaseModel</text>
</a>
</g>
</g>
<!-- Node3&#45;&gt;Node2 -->
<g id="edge2_Node000002_Node000003" class="edge">
<title>Node3&#45;&gt;Node2</title>
<g id="a_edge2_Node000002_Node000003"><a xlink:title=" ">
<path fill="none" stroke="#63b8ff" d="M68.75,-100.13C68.75,-91.9 68.75,-82.85 68.75,-76.3"/>
<polygon fill="#63b8ff" stroke="#63b8ff" points="65.25,-100.08 68.75,-110.08 72.25,-100.08 65.25,-100.08"/>
</a>
</g>
</g>
</g>
</svg>
