<?xml version="1.0" encoding="UTF-8" standalone="no"?>
<!DOCTYPE svg PUBLIC "-//W3C//DTD SVG 1.1//EN"
 "http://www.w3.org/Graphics/SVG/1.1/DTD/svg11.dtd">
<!-- Generated by graphviz version 14.1.5 (0)
 -->
<!-- Title: schemas.SocialShareBase Pages: 1 -->
<svg width="278pt" height="140pt"
 viewBox="0.00 0.00 278.00 140.00" xmlns="http://www.w3.org/2000/svg" xmlns:xlink="http://www.w3.org/1999/xlink">
<g id="graph0" class="graph" transform="scale(1 1) rotate(0) translate(4 136)">
<title>schemas.SocialShareBase</title>
<!-- Node1 -->
<g id="Node000001" class="node">
<title>Node1</title>
<g id="a_Node000001"><a xlink:title=" ">
<polygon fill="#999999" stroke="#666666" points="194.5,-76 60.75,-76 60.75,-56 194.5,-56 194.5,-76"/>
<text xml:space="preserve" text-anchor="middle" x="127.62" y="-62.5" font-family="Helvetica,sans-Serif" font-size="10.00">schemas.SocialShareBase</text>
</a>
</g>
</g>
<!-- Node3 -->
<g id="Node000003" class="node">
<title>Node3</title>
<g id="a_Node000003"><a xlink:href="classschemas_1_1SocialShare.html" target="_top" xlink:title=" ">
<polygon fill="white" stroke="#666666" points="111.25,-20 0,-20 0,0 111.25,0 111.25,-20"/>
<text xml:space="preserve" text-anchor="middle" x="55.62" y="-6.5" font-family="Helvetica,sans-Serif" font-size="10.00">schemas.SocialShare</text>
</a>
</g>
</g>
<!-- Node1&#45;&gt;Node3 -->
<g id="edge2_Node000001_Node000003" class="edge">
<title>Node1&#45;&gt;Node3</title>
<g id="a_edge2_Node000001_Node000003"><a xlink:title=" ">
<path fill="none" stroke="#63b8ff" d="M106.23,-48.95C93.78,-39.61 78.51,-28.16 68.02,-20.3"/>
<polygon fill="#63b8ff" stroke="#63b8ff" points="103.77,-51.49 113.87,-54.69 107.97,-45.89 103.77,-51.49"/>
</a>
</g>
</g>
<!-- Node4 -->
<g id="Node000004" class="node">
<title>Node4</title>
<g id="a_Node000004"><a xlink:href="classschemas_1_1SocialShareCreate.html" target="_top" xlink:title=" ">
<polygon fill="white" stroke="#666666" points="269.88,-20 129.38,-20 129.38,0 269.88,0 269.88,-20"/>
<text xml:space="preserve" text-anchor="middle" x="199.62" y="-6.5" font-family="Helvetica,sans-Serif" font-size="10.00">schemas.SocialShareCreate</text>
</a>
</g>
</g>
<!-- Node1&#45;&gt;Node4 -->
<g id="edge3_Node000001_Node000004" class="edge">
<title>Node1&#45;&gt;Node4</title>
<g id="a_edge3_Node000001_Node000004"><a xlink:title=" ">
<path fill="none" stroke="#63b8ff" d="M149.02,-48.95C161.47,-39.61 176.74,-28.16 187.23,-20.3"/>
<polygon fill="#63b8ff" stroke="#63b8ff" points="147.28,-45.89 141.38,-54.69 151.48,-51.49 147.28,-45.89"/>
</a>
</g>
</g>
<!-- Node2 -->
<g id="Node000002" class="node">
<title>Node2</title>
<g id="a_Node000002"><a xlink:title=" ">
<polygon fill="white" stroke="#666666" points="160,-132 95.25,-132 95.25,-112 160,-112 160,-132"/>
<text xml:space="preserve" text-anchor="middle" x="127.62" y="-118.5" font-family="Helvetica,sans-Serif" font-size="10.00">BaseModel</text>
</a>
</g>
</g>
<!-- Node2&#45;&gt;Node1 -->
<g id="edge1_Node000001_Node000002" class="edge">
<title>Node2&#45;&gt;Node1</title>
<g id="a_edge1_Node000001_Node000002"><a xlink:title=" ">
<path fill="none" stroke="#63b8ff" d="M127.62,-100.13C127.62,-91.9 127.62,-82.85 127.62,-76.3"/>
<polygon fill="#63b8ff" stroke="#63b8ff" points="124.13,-100.08 127.63,-110.08 131.13,-100.08 124.13,-100.08"/>
</a>
</g>
</g>
</g>
</svg>
