<?xml version="1.0" encoding="UTF-8" standalone="no"?>
<!DOCTYPE svg PUBLIC "-//W3C//DTD SVG 1.1//EN"
 "http://www.w3.org/Graphics/SVG/1.1/DTD/svg11.dtd">
<!-- Generated by graphviz version 14.1.5 (0)
 -->
<!-- Title: schemas.ChatMessageBase Pages: 1 -->
<svg width="294pt" height="140pt"
 viewBox="0.00 0.00 294.00 140.00" xmlns="http://www.w3.org/2000/svg" xmlns:xlink="http://www.w3.org/1999/xlink">

<svg id="main" version="1.1" xmlns="http://www.w3.org/2000/svg" xmlns:xlink="http://www.w3.org/1999/xlink" xml:space="preserve">

<style type="text/css"><![CDATA[
.node, .edge {opacity: 0.7;}
.node.selected, .edge.selected {opacity: 1;}
.edge:hover path { stroke: red; }
.edge:hover polygon { stroke: red; fill: red; }
]]></style>
<script type="application/ecmascript" xlink:href="svg.min.js"/>
<svg id="graph" class="graph">
<g id="graph0" class="graph" transform="scale(1 1) rotate(0) translate(4 136)">
<title>schemas.ChatMessageBase</title>
<!-- Node1 -->
<g id="Node000001" class="node">
<title>Node1</title>
<g id="a_Node000001"><a xlink:title=" ">
<polygon fill="#999999" stroke="#666666" points="206.75,-76 64.75,-76 64.75,-56 206.75,-56 206.75,-76"/>
<text xml:space="preserve" text-anchor="middle" x="135.75" y="-62.5" font-family="Helvetica,sans-Serif" font-size="10.00">schemas.ChatMessageBase</text>
</a>
</g>
</g>
<!-- Node3 -->
<g id="Node000003" class="node">
<title>Node3</title>
<g id="a_Node000003"><a xlink:href="classschemas_1_1ChatMessage.html" target="_top" xlink:title=" ">
<polygon fill="white" stroke="#666666" points="119.5,-20 0,-20 0,0 119.5,0 119.5,-20"/>
<text xml:space="preserve" text-anchor="middle" x="59.75" y="-6.5" font-family="Helvetica,sans-Serif" font-size="10.00">schemas.ChatMessage</text>
</a>
</g>
</g>
<!-- Node1&#45;&gt;Node3 -->
<g id="edge2_Node000001_Node000003" class="edge">
<title>Node1&#45;&gt;Node3</title>
<g id="a_edge2_Node000001_Node000003"><a xlink:title=" ">
<path fill="none" stroke="#63b8ff" d="M113.23,-49C100.17,-39.72 84.17,-28.35 73.09,-20.48"/>
<polygon fill="#63b8ff" stroke="#63b8ff" points="111.1,-51.78 121.28,-54.72 115.15,-46.07 111.1,-51.78"/>
</a>
</g>
</g>
<!-- Node4 -->
<g id="Node000004" class="node">
<title>Node4</title>
<g id="a_Node000004"><a xlink:href="classschemas_1_1ChatMessageCreate.html" target="_top" xlink:title=" ">
<polygon fill="white" stroke="#666666" points="286.12,-20 137.38,-20 137.38,0 286.12,0 286.12,-20"/>
<text xml:space="preserve" text-anchor="middle" x="211.75" y="-6.5" font-family="Helvetica,sans-Serif" font-size="10.00">schemas.ChatMessageCreate</text>
</a>
</g>
</g>
<!-- Node1&#45;&gt;Node4 -->
<g id="edge3_Node000001_Node000004" class="edge">
<title>Node1&#45;&gt;Node4</title>
<g id="a_edge3_Node000001_Node000004"><a xlink:title=" ">
<path fill="none" stroke="#63b8ff" d="M158.27,-49C171.33,-39.72 187.33,-28.35 198.41,-20.48"/>
<polygon fill="#63b8ff" stroke="#63b8ff" points="156.35,-46.07 150.22,-54.72 160.4,-51.78 156.35,-46.07"/>
</a>
</g>
</g>
<!-- Node2 -->
<g id="Node000002" class="node">
<title>Node2</title>
<g id="a_Node000002"><a xlink:title=" ">
<polygon fill="white" stroke="#666666" points="168.12,-132 103.38,-132 103.38,-112 168.12,-112 168.12,-132"/>
<text xml:space="preserve" text-anchor="middle" x="135.75" y="-118.5" font-family="Helvetica,sans-Serif" font-size="10.00">BaseModel</text>
</a>
</g>
</g>
<!-- Node2&#45;&gt;Node1 -->
<g id="edge1_Node000001_Node000002" class="edge">
<title>Node2&#45;&gt;Node1</title>
<g id="a_edge1_Node000001_Node000002"><a xlink:title=" ">
<path fill="none" stroke="#63b8ff" d="M135.75,-100.13C135.75,-91.9 135.75,-82.85 135.75,-76.3"/>
<polygon fill="#63b8ff" stroke="#63b8ff" points="132.25,-100.08 135.75,-110.08 139.25,-100.08 132.25,-100.08"/>
</a>
</g>
</g>
</g>
</svg>
</svg>

<style type='text/css'>
<![CDATA[
[data-mouse-over-selected='false'] { opacity: 0.7; }
[data-mouse-over-selected='true']  { opacity: 1.0; }
]]>
</style>
<script type="application/ecmascript"><![CDATA[
document.addEventListener('DOMContentLoaded', (event) => {
  highlightEdges();
  highlightAdjacentNodes();
});
]]></script>
</svg>
