<?xml version="1.0" encoding="UTF-8" standalone="no"?>
<!DOCTYPE svg PUBLIC "-//W3C//DTD SVG 1.1//EN"
 "http://www.w3.org/Graphics/SVG/1.1/DTD/svg11.dtd">
<!-- Generated by graphviz version 14.1.5 (0)
 -->
<!-- Title: schemas.FAQBase Pages: 1 -->
<svg width="214pt" height="140pt"
 viewBox="0.00 0.00 214.00 140.00" xmlns="http://www.w3.org/2000/svg" xmlns:xlink="http://www.w3.org/1999/xlink">

<svg id="main" version="1.1" xmlns="http://www.w3.org/2000/svg" xmlns:xlink="http://www.w3.org/1999/xlink" xml:space="preserve">

<style type="text/css"><![CDATA[
.node, .edge {opacity: 0.7;}
.node.selected, .edge.selected {opacity: 1;}
.edge:hover path { stroke: red; }
.edge:hover polygon { stroke: red; fill: red; }
]]></style>
<script type="application/ecmascript" xlink:href="svg.min.js"/>
<svg id="graph" class="graph">
<g id="graph0" class="graph" transform="scale(1 1) rotate(0) translate(4 136)">
<title>schemas.FAQBase</title>
<!-- Node1 -->
<g id="Node000001" class="node">
<title>Node1</title>
<g id="a_Node000001"><a xlink:title=" ">
<polygon fill="#999999" stroke="#666666" points="146.25,-76 44.75,-76 44.75,-56 146.25,-56 146.25,-76"/>
<text xml:space="preserve" text-anchor="middle" x="95.5" y="-62.5" font-family="Helvetica,sans-Serif" font-size="10.00">schemas.FAQBase</text>
</a>
</g>
</g>
<!-- Node3 -->
<g id="Node000003" class="node">
<title>Node3</title>
<g id="a_Node000003"><a xlink:href="classschemas_1_1FAQ.html" target="_top" xlink:title=" ">
<polygon fill="white" stroke="#666666" points="79,-20 0,-20 0,0 79,0 79,-20"/>
<text xml:space="preserve" text-anchor="middle" x="39.5" y="-6.5" font-family="Helvetica,sans-Serif" font-size="10.00">schemas.FAQ</text>
</a>
</g>
</g>
<!-- Node1&#45;&gt;Node3 -->
<g id="edge2_Node000001_Node000003" class="edge">
<title>Node1&#45;&gt;Node3</title>
<g id="a_edge2_Node000001_Node000003"><a xlink:title=" ">
<path fill="none" stroke="#63b8ff" d="M77.71,-47.85C68.25,-38.72 56.98,-27.86 49.14,-20.3"/>
<polygon fill="#63b8ff" stroke="#63b8ff" points="75.03,-50.12 84.66,-54.54 79.89,-45.08 75.03,-50.12"/>
</a>
</g>
</g>
<!-- Node4 -->
<g id="Node000004" class="node">
<title>Node4</title>
<g id="a_Node000004"><a xlink:href="classschemas_1_1FAQCreate.html" target="_top" xlink:title=" ">
<polygon fill="white" stroke="#666666" points="205.62,-20 97.38,-20 97.38,0 205.62,0 205.62,-20"/>
<text xml:space="preserve" text-anchor="middle" x="151.5" y="-6.5" font-family="Helvetica,sans-Serif" font-size="10.00">schemas.FAQCreate</text>
</a>
</g>
</g>
<!-- Node1&#45;&gt;Node4 -->
<g id="edge3_Node000001_Node000004" class="edge">
<title>Node1&#45;&gt;Node4</title>
<g id="a_edge3_Node000001_Node000004"><a xlink:title=" ">
<path fill="none" stroke="#63b8ff" d="M113.29,-47.85C122.75,-38.72 134.02,-27.86 141.86,-20.3"/>
<polygon fill="#63b8ff" stroke="#63b8ff" points="111.11,-45.08 106.34,-54.54 115.97,-50.12 111.11,-45.08"/>
</a>
</g>
</g>
<!-- Node2 -->
<g id="Node000002" class="node">
<title>Node2</title>
<g id="a_Node000002"><a xlink:title=" ">
<polygon fill="white" stroke="#666666" points="127.88,-132 63.12,-132 63.12,-112 127.88,-112 127.88,-132"/>
<text xml:space="preserve" text-anchor="middle" x="95.5" y="-118.5" font-family="Helvetica,sans-Serif" font-size="10.00">BaseModel</text>
</a>
</g>
</g>
<!-- Node2&#45;&gt;Node1 -->
<g id="edge1_Node000001_Node000002" class="edge">
<title>Node2&#45;&gt;Node1</title>
<g id="a_edge1_Node000001_Node000002"><a xlink:title=" ">
<path fill="none" stroke="#63b8ff" d="M95.5,-100.13C95.5,-91.9 95.5,-82.85 95.5,-76.3"/>
<polygon fill="#63b8ff" stroke="#63b8ff" points="92,-100.08 95.5,-110.08 99,-100.08 92,-100.08"/>
</a>
</g>
</g>
</g>
</svg>
</svg>

<style type='text/css'>
<![CDATA[
[data-mouse-over-selected='false'] { opacity: 0.7; }
[data-mouse-over-selected='true']  { opacity: 1.0; }
]]>
</style>
<script type="application/ecmascript"><![CDATA[
document.addEventListener('DOMContentLoaded', (event) => {
  highlightEdges();
  highlightAdjacentNodes();
});
]]></script>
</svg>
