<?xml version="1.0" encoding="UTF-8" standalone="no"?>
<!DOCTYPE svg PUBLIC "-//W3C//DTD SVG 1.1//EN"
 "http://www.w3.org/Graphics/SVG/1.1/DTD/svg11.dtd">
<!-- Generated by graphviz version 14.1.5 (0)
 -->
<!-- Title: schemas.CategoryBase Pages: 1 -->
<svg width="252pt" height="140pt"
 viewBox="0.00 0.00 252.00 140.00" xmlns="http://www.w3.org/2000/svg" xmlns:xlink="http://www.w3.org/1999/xlink">

<svg id="main" version="1.1" xmlns="http://www.w3.org/2000/svg" xmlns:xlink="http://www.w3.org/1999/xlink" xml:space="preserve">

<style type="text/css"><![CDATA[
.node, .edge {opacity: 0.7;}
.node.selected, .edge.selected {opacity: 1;}
.edge:hover path { stroke: red; }
.edge:hover polygon { stroke: red; fill: red; }
]]></style>
<script type="application/ecmascript" xlink:href="svg.min.js"/>
<svg id="graph" class="graph">
<g id="graph0" class="graph" transform="scale(1 1) rotate(0) translate(4 136)">
<title>schemas.CategoryBase</title>
<!-- Node1 -->
<g id="Node000001" class="node">
<title>Node1</title>
<g id="a_Node000001"><a xlink:title=" ">
<polygon fill="#999999" stroke="#666666" points="174.75,-76 53.75,-76 53.75,-56 174.75,-56 174.75,-76"/>
<text xml:space="preserve" text-anchor="middle" x="114.25" y="-62.5" font-family="Helvetica,sans-Serif" font-size="10.00">schemas.CategoryBase</text>
</a>
</g>
</g>
<!-- Node3 -->
<g id="Node000003" class="node">
<title>Node3</title>
<g id="a_Node000003"><a xlink:href="classschemas_1_1Category.html" target="_top" xlink:title=" ">
<polygon fill="white" stroke="#666666" points="98.5,-20 0,-20 0,0 98.5,0 98.5,-20"/>
<text xml:space="preserve" text-anchor="middle" x="49.25" y="-6.5" font-family="Helvetica,sans-Serif" font-size="10.00">schemas.Category</text>
</a>
</g>
</g>
<!-- Node1&#45;&gt;Node3 -->
<g id="edge2_Node000001_Node000003" class="edge">
<title>Node1&#45;&gt;Node3</title>
<g id="a_edge2_Node000001_Node000003"><a xlink:title=" ">
<path fill="none" stroke="#63b8ff" d="M94.27,-48.4C83.15,-39.17 69.72,-28.01 60.44,-20.3"/>
<polygon fill="#63b8ff" stroke="#63b8ff" points="91.84,-50.93 101.76,-54.63 96.31,-45.54 91.84,-50.93"/>
</a>
</g>
</g>
<!-- Node4 -->
<g id="Node000004" class="node">
<title>Node4</title>
<g id="a_Node000004"><a xlink:href="classschemas_1_1CategoryCreate.html" target="_top" xlink:title=" ">
<polygon fill="white" stroke="#666666" points="244.12,-20 116.38,-20 116.38,0 244.12,0 244.12,-20"/>
<text xml:space="preserve" text-anchor="middle" x="180.25" y="-6.5" font-family="Helvetica,sans-Serif" font-size="10.00">schemas.CategoryCreate</text>
</a>
</g>
</g>
<!-- Node1&#45;&gt;Node4 -->
<g id="edge3_Node000001_Node000004" class="edge">
<title>Node1&#45;&gt;Node4</title>
<g id="a_edge3_Node000001_Node000004"><a xlink:title=" ">
<path fill="none" stroke="#63b8ff" d="M134.54,-48.4C145.83,-39.17 159.46,-28.01 168.89,-20.3"/>
<polygon fill="#63b8ff" stroke="#63b8ff" points="132.44,-45.59 126.92,-54.64 136.87,-51.01 132.44,-45.59"/>
</a>
</g>
</g>
<!-- Node2 -->
<g id="Node000002" class="node">
<title>Node2</title>
<g id="a_Node000002"><a xlink:title=" ">
<polygon fill="white" stroke="#666666" points="146.62,-132 81.88,-132 81.88,-112 146.62,-112 146.62,-132"/>
<text xml:space="preserve" text-anchor="middle" x="114.25" y="-118.5" font-family="Helvetica,sans-Serif" font-size="10.00">BaseModel</text>
</a>
</g>
</g>
<!-- Node2&#45;&gt;Node1 -->
<g id="edge1_Node000001_Node000002" class="edge">
<title>Node2&#45;&gt;Node1</title>
<g id="a_edge1_Node000001_Node000002"><a xlink:title=" ">
<path fill="none" stroke="#63b8ff" d="M114.25,-100.13C114.25,-91.9 114.25,-82.85 114.25,-76.3"/>
<polygon fill="#63b8ff" stroke="#63b8ff" points="110.75,-100.08 114.25,-110.08 117.75,-100.08 110.75,-100.08"/>
</a>
</g>
</g>
</g>
</svg>
</svg>

<style type='text/css'>
<![CDATA[
[data-mouse-over-selected='false'] { opacity: 0.7; }
[data-mouse-over-selected='true']  { opacity: 1.0; }
]]>
</style>
<script type="application/ecmascript"><![CDATA[
document.addEventListener('DOMContentLoaded', (event) => {
  highlightEdges();
  highlightAdjacentNodes();
});
]]></script>
</svg>
